# xmcd CD database file
#
# Track frame offsets:
#	150
#	16535
#	37479
#	58368
#	82108
#	102914
#	120762
#	140155
#	160261
#	179742
#
# Disc length: 2776 seconds
#
# Revision: 2
# Processed by: cddbd v1.5.2PL0 Copyright (c) Steve Scherf et al.
# Submitted via: CDex 1.51
#
DISCID=8c0ad60a
DTITLE=Various Artist - For Those About To Jazz - Vol.1  [CD 2]
DYEAR=2007
DGENRE=Jazz
TTITLE0=Kyle Eastwood - Big Noise  (From Winnetka)
TTITLE1=Alex Wilson - Tell Me How It Feels
TTITLE2=Geoff Gascoyne - Raggedy Ann
TTITLE3=Dimitri Vassilakis - Parallel Lines
TTITLE4=Alec Dankworth - Msunduza
TTITLE5=Gustavo Marques - Don't You Go Away
TTITLE6=Gilson - Lampiao
TTITLE7=Cameron Pierre - Human Nature
TTITLE8=Omar Valle - Sirus
TTITLE9=Dave O' Higgins - Big Shake Up
EXTD=YEAR: 2007
EXTT0=
EXTT1=
EXTT2=
EXTT3=
EXTT4=
EXTT5=
EXTT6=
EXTT7=
EXTT8=
EXTT9=
PLAYORDER=
